<svg width="133" height="20" viewBox="0 0 133 20" fill="none" xmlns="http://www.w3.org/2000/svg">
<path d="M4.22221 14.9535C4.15617 15.066 4.07646 15.1686 3.99603 15.2711C3.75848 15.5737 3.4345 15.7614 3.10079 15.9303C2.98674 15.9881 2.87255 16.0327 2.85466 16.1696C2.83474 16.322 2.96273 16.373 3.06808 16.4338C3.08163 16.4416 3.09725 16.4458 3.11184 16.4518C3.9648 16.802 4.84718 17.0514 5.75087 17.2309C6.73182 17.4257 7.72175 17.5395 8.72079 17.5738C9.33642 17.5949 9.95139 17.5809 10.5656 17.5285C11.2927 17.4665 11.9999 17.3263 12.6779 17.0456C13.4951 16.7073 14.2087 16.2243 14.8179 15.5821C15.6552 14.6994 16.215 13.6625 16.5489 12.4991C16.8215 11.5493 16.9158 10.5813 16.8393 9.59507C16.7905 8.9665 16.6809 8.34924 16.4785 7.75407C16.2323 7.0301 15.9176 6.336 15.5279 5.67419C15.0459 4.85555 14.4033 4.19547 13.6181 3.67402C12.3175 2.81034 10.8752 2.39397 9.31973 2.36939C8.35978 2.35424 7.42759 2.50909 6.53761 2.885C6.36359 2.95851 6.179 3.0073 6.00588 3.0826C5.15264 3.45366 4.44578 4.01264 3.88718 4.75693C3.36201 5.45666 3.03198 6.24392 2.85798 7.09767C2.70932 7.82702 2.70999 8.56194 2.78077 9.30067C2.81506 9.65833 2.94065 9.98838 3.04037 10.3271C3.06073 10.5509 3.17472 10.7464 3.25356 10.9481C3.38275 11.2786 3.53087 11.5996 3.63699 11.9416C3.73232 12.2488 3.8846 12.5403 4.03053 12.8292C4.19123 13.1475 4.32474 13.4718 4.34479 13.8309C4.36212 14.1409 4.38597 14.4522 4.28866 14.7571C4.26763 14.823 4.2082 14.8763 4.22221 14.9535ZM8.95393 18.6816C7.88092 18.6739 6.50732 18.5256 5.15006 18.2247C4.2586 18.027 3.38617 17.7699 2.54923 17.4024C1.92199 17.127 1.32504 16.7994 0.829768 16.3151C0.65294 16.1422 0.555391 15.9325 0.646612 15.683C0.747069 15.4083 0.94135 15.2348 1.23706 15.1804C1.48413 15.135 1.73404 15.1089 1.97126 15.0091C2.37917 14.8377 2.61019 14.5394 2.71889 14.114C2.80128 13.7915 2.73134 13.4913 2.63854 13.1963C2.47906 12.6894 2.30581 12.1865 2.13299 11.6837C1.8679 10.9124 1.60171 10.1394 1.49533 9.32506C1.44402 8.93226 1.44262 8.53536 1.49087 8.14365C1.55346 7.6354 1.61924 7.12645 1.76035 6.63097C1.89905 6.14399 2.0832 5.67781 2.31923 5.22849C2.56018 4.76984 2.81746 4.32374 3.14376 3.92058C3.83778 3.06308 4.70095 2.4353 5.71655 2.0053C6.83544 1.53159 7.99446 1.2699 9.21225 1.27273C9.92954 1.27439 10.6363 1.35219 11.3347 1.51603C12.5975 1.81227 13.747 2.34589 14.7641 3.15336C15.5008 3.73829 16.1167 4.43103 16.5519 5.26947C16.6769 5.51037 16.7984 5.75329 16.9266 5.99281C16.9656 6.06573 17.0151 6.10016 17.0945 6.12103C17.674 6.27341 18.2539 6.42462 18.8254 6.60563C18.9688 6.65103 19.1068 6.70824 19.2148 6.82071C19.4134 7.0276 19.4076 7.29654 19.1959 7.48995C19.1524 7.5296 19.1035 7.564 19.0541 7.59633C18.7541 7.79275 18.4517 7.9854 18.1538 8.18494C18.0662 8.24365 17.9894 8.31903 17.91 8.38948C17.8298 8.46072 17.8078 8.54686 17.8279 8.65556C17.9925 9.54327 18.0112 10.4377 17.9044 11.3315C17.7694 12.4617 17.4461 13.5371 16.9076 14.5448C16.4937 15.3195 15.9764 16.0152 15.3403 16.621C14.8346 17.1025 14.2605 17.4865 13.6504 17.8243C12.9766 18.1973 12.2481 18.3864 11.4984 18.5134C10.7613 18.6383 10.0174 18.6819 8.95393 18.6816Z" fill="#2782FB"/>
<path d="M3.04004 10.3272C3.10169 9.98091 3.2852 9.70207 3.51781 9.44739C3.87302 9.05845 4.27819 8.73094 4.76655 8.53454C5.38078 8.2875 6.01807 8.11858 6.69117 8.17757C7.82516 8.27696 8.75181 8.76189 9.44698 9.67367C9.71288 10.0224 9.91178 10.4065 10.036 10.8242C10.2404 11.5112 10.2555 12.204 10.0678 12.9009C9.86723 13.6462 9.47441 14.2729 8.89437 14.7724C8.39119 15.2057 7.80597 15.4876 7.14681 15.6111C6.47109 15.7377 5.81088 15.6823 5.16626 15.4554C4.85032 15.3442 4.55183 15.1914 4.28176 14.9889C4.26321 14.975 4.24147 14.9654 4.22155 14.9537C4.20787 14.8764 4.2673 14.8232 4.28832 14.7573C4.38564 14.4524 4.36178 14.141 4.34446 13.831C4.3244 13.472 4.19093 13.1476 4.0302 12.8294C3.8843 12.5404 3.73199 12.2489 3.63666 11.9417C3.53054 11.5997 3.38244 11.2787 3.25323 10.9482C3.17438 10.7465 3.0604 10.551 3.04004 10.3272Z" fill="#FB6131"/>
<path d="M11.3099 7.21459C11.2978 6.43047 11.9137 5.9622 12.5087 5.95181C13.1287 5.94102 13.6908 6.55588 13.6741 7.19005C13.6565 7.8566 13.0864 8.39617 12.4105 8.38569C11.7962 8.37617 11.2972 7.84525 11.3099 7.21459Z" fill="#2782FB"/>
<path d="M31.1465 14V6.81641H28.5449V5.54492H35.2598V6.81641H32.6582V14H31.1465ZM37.4043 14L35.6641 7.5957H37.1289L38.1895 12.4121H38.2949L39.5254 7.5957H40.9141L42.1504 12.4121H42.2559L43.3164 7.5957H44.7637L43.0234 14H41.5L40.252 9.35938H40.1523L38.9102 14H37.4043ZM46.041 14V7.5957H47.4941V14H46.041ZM46.7734 6.52344C46.5352 6.52344 46.3301 6.43945 46.1582 6.27148C45.9863 6.10352 45.9004 5.90234 45.9004 5.66797C45.9004 5.42578 45.9863 5.22266 46.1582 5.05859C46.3301 4.89062 46.5352 4.80664 46.7734 4.80664C47.0117 4.80664 47.2148 4.89062 47.3828 5.05859C47.5547 5.22266 47.6406 5.42578 47.6406 5.66797C47.6406 5.90234 47.5547 6.10352 47.3828 6.27148C47.2148 6.43945 47.0117 6.52344 46.7734 6.52344ZM49.293 14V7.5957H50.752V8.58008H50.8516C51.0039 8.23242 51.2344 7.96094 51.543 7.76562C51.8516 7.57031 52.2363 7.47266 52.6973 7.47266C53.4121 7.47266 53.959 7.67969 54.3379 8.09375C54.7168 8.50781 54.9062 9.0957 54.9062 9.85742V14H53.4473V10.1973C53.4473 9.69727 53.3418 9.32227 53.1309 9.07227C52.9238 8.82227 52.5996 8.69727 52.1582 8.69727C51.8691 8.69727 51.6191 8.76172 51.4082 8.89062C51.1973 9.01953 51.0352 9.20117 50.9219 9.43555C50.8086 9.66992 50.752 9.94727 50.752 10.2676V14H49.293ZM59.3711 14.1289C58.7344 14.1289 58.1875 13.9941 57.7305 13.7246C57.2773 13.4551 56.9277 13.0723 56.6816 12.5762C56.4355 12.0801 56.3125 11.4922 56.3125 10.8125V10.8066C56.3125 10.1348 56.4336 9.54883 56.6758 9.04883C56.9219 8.54883 57.2695 8.16211 57.7188 7.88867C58.168 7.61133 58.6953 7.47266 59.3008 7.47266C59.9102 7.47266 60.4336 7.60742 60.8711 7.87695C61.3125 8.14258 61.6523 8.51562 61.8906 8.99609C62.1289 9.47656 62.248 10.0391 62.248 10.6836V11.1641H57.0449V10.1855H61.5332L60.8418 11.0996V10.5195C60.8418 10.0938 60.7773 9.74023 60.6484 9.45898C60.5195 9.17773 60.3398 8.9668 60.1094 8.82617C59.8828 8.68555 59.6191 8.61523 59.3184 8.61523C59.0176 8.61523 58.75 8.68945 58.5156 8.83789C58.2852 8.98242 58.1016 9.19727 57.9648 9.48242C57.832 9.76367 57.7656 10.1094 57.7656 10.5195V11.1055C57.7656 11.5 57.832 11.8379 57.9648 12.1191C58.0977 12.3965 58.2852 12.6113 58.5273 12.7637C58.7734 12.9121 59.0645 12.9863 59.4004 12.9863C59.6621 12.9863 59.8867 12.9492 60.0742 12.875C60.2656 12.7969 60.4199 12.7051 60.5371 12.5996C60.6543 12.4902 60.7363 12.3867 60.7832 12.2891L60.8008 12.248H62.1836L62.1719 12.3008C62.1211 12.5078 62.0273 12.7188 61.8906 12.9336C61.7578 13.1445 61.5762 13.3418 61.3457 13.5254C61.1191 13.7051 60.8418 13.8516 60.5137 13.9648C60.1855 14.0742 59.8047 14.1289 59.3711 14.1289ZM67.8145 14V12.8281H70.3281C70.8867 12.8281 71.3105 12.7148 71.5996 12.4883C71.8887 12.2578 72.0332 11.9277 72.0332 11.498V11.4863C72.0332 11.2012 71.9668 10.9609 71.834 10.7656C71.7012 10.5703 71.502 10.4238 71.2363 10.3262C70.9746 10.2285 70.6504 10.1797 70.2637 10.1797H67.8145V9.10742H70.0293C70.5645 9.10742 70.9707 9.00586 71.248 8.80273C71.5293 8.59961 71.6699 8.30664 71.6699 7.92383V7.91211C71.6699 7.53711 71.543 7.24414 71.2891 7.0332C71.0352 6.82227 70.6797 6.7168 70.2227 6.7168H67.8145V5.54492H70.5859C71.125 5.54492 71.5859 5.63086 71.9688 5.80273C72.3516 5.9707 72.6465 6.21289 72.8535 6.5293C73.0605 6.8418 73.1641 7.21484 73.1641 7.64844V7.66016C73.1641 7.95703 73.0957 8.23438 72.959 8.49219C72.8262 8.75 72.6465 8.96484 72.4199 9.13672C72.1973 9.30859 71.9434 9.41797 71.6582 9.46484V9.57031C72.0371 9.60547 72.3691 9.71484 72.6543 9.89844C72.9434 10.0781 73.168 10.3145 73.3281 10.6074C73.4922 10.9004 73.5742 11.2285 73.5742 11.5918V11.6035C73.5742 12.0957 73.457 12.5215 73.2227 12.8809C72.9922 13.2402 72.6602 13.5176 72.2266 13.7129C71.793 13.9043 71.2754 14 70.6738 14H67.8145ZM67.0586 14V5.54492H68.5703V14H67.0586ZM75.7598 16.25C75.6699 16.25 75.5762 16.248 75.4785 16.2441C75.3848 16.2402 75.293 16.2344 75.2031 16.2266V15.1074C75.2617 15.1152 75.3301 15.1191 75.4082 15.1191C75.4863 15.123 75.5625 15.125 75.6367 15.125C75.9375 15.125 76.1777 15.0586 76.3574 14.9258C76.541 14.7969 76.6719 14.5879 76.75 14.2988L76.8262 14.0059L74.5352 7.5957H76.1289L77.8164 13.2676L77.418 12.5996H77.9219L77.5352 13.2676L79.2227 7.5957H80.7578L78.4609 14.1406C78.2773 14.6719 78.0664 15.0918 77.8281 15.4004C77.5898 15.709 77.3027 15.9277 76.9668 16.0566C76.6348 16.1855 76.2324 16.25 75.7598 16.25ZM88.2871 14.2109C87.6309 14.2109 87.0605 14.1094 86.5762 13.9062C86.0957 13.7031 85.7168 13.4199 85.4395 13.0566C85.1621 12.6934 85.0059 12.2695 84.9707 11.7852L84.9648 11.7031H86.4297L86.4355 11.7617C86.459 12 86.5527 12.207 86.7168 12.3828C86.8848 12.5586 87.1074 12.6973 87.3848 12.7988C87.6621 12.8965 87.9785 12.9453 88.334 12.9453C88.6738 12.9453 88.9746 12.8926 89.2363 12.7871C89.498 12.6816 89.7031 12.5371 89.8516 12.3535C90 12.166 90.0742 11.9512 90.0742 11.709V11.7031C90.0742 11.3984 89.9551 11.1504 89.7168 10.959C89.4785 10.7637 89.0859 10.6074 88.5391 10.4902L87.6309 10.3027C86.7637 10.1191 86.1328 9.82617 85.7383 9.42383C85.3477 9.01758 85.1523 8.5 85.1523 7.87109V7.86523C85.1523 7.36133 85.2852 6.91992 85.5508 6.54102C85.8203 6.16211 86.1895 5.86719 86.6582 5.65625C87.1309 5.44141 87.6719 5.33398 88.2812 5.33398C88.9062 5.33398 89.4473 5.43945 89.9043 5.65039C90.3613 5.85742 90.7207 6.14062 90.9824 6.5C91.2441 6.85938 91.3906 7.26562 91.4219 7.71875L91.4277 7.79492H89.9863L89.9746 7.72461C89.9395 7.50195 89.8477 7.30859 89.6992 7.14453C89.5547 6.97656 89.3613 6.84375 89.1191 6.74609C88.877 6.64844 88.5938 6.59961 88.2695 6.59961C87.9609 6.59961 87.6855 6.64844 87.4434 6.74609C87.2012 6.83984 87.0098 6.97266 86.8691 7.14453C86.7324 7.31641 86.6641 7.52344 86.6641 7.76562V7.77148C86.6641 8.06836 86.7793 8.31445 87.0098 8.50977C87.2441 8.70508 87.625 8.85742 88.1523 8.9668L89.0605 9.16016C89.6543 9.28516 90.1367 9.45117 90.5078 9.6582C90.8789 9.86523 91.1504 10.123 91.3223 10.4316C91.498 10.7363 91.5859 11.1035 91.5859 11.5332V11.5391C91.5859 12.0859 91.4512 12.5586 91.1816 12.957C90.916 13.3555 90.5352 13.6641 90.0391 13.8828C89.5469 14.1016 88.9629 14.2109 88.2871 14.2109ZM94.3574 14L92.6172 7.5957H94.082L95.1426 12.4121H95.248L96.4785 7.5957H97.8672L99.1035 12.4121H99.209L100.27 7.5957H101.717L99.9766 14H98.4531L97.2051 9.35938H97.1055L95.8633 14H94.3574ZM102.994 14V7.5957H104.447V14H102.994ZM103.727 6.52344C103.488 6.52344 103.283 6.43945 103.111 6.27148C102.939 6.10352 102.854 5.90234 102.854 5.66797C102.854 5.42578 102.939 5.22266 103.111 5.05859C103.283 4.89062 103.488 4.80664 103.727 4.80664C103.965 4.80664 104.168 4.89062 104.336 5.05859C104.508 5.22266 104.594 5.42578 104.594 5.66797C104.594 5.90234 104.508 6.10352 104.336 6.27148C104.168 6.43945 103.965 6.52344 103.727 6.52344ZM106.715 14V8.72656H105.666V7.5957H106.715V6.96289C106.715 6.5332 106.787 6.17773 106.932 5.89648C107.08 5.61523 107.309 5.40625 107.617 5.26953C107.926 5.12891 108.316 5.05859 108.789 5.05859C108.945 5.05859 109.09 5.06445 109.223 5.07617C109.355 5.08398 109.479 5.09766 109.592 5.11719V6.13672C109.537 6.12891 109.467 6.12305 109.381 6.11914C109.295 6.11133 109.201 6.10742 109.1 6.10742C108.756 6.10742 108.512 6.1875 108.367 6.34766C108.223 6.50391 108.15 6.73633 108.15 7.04492V7.5957H109.539V8.72656H108.174V14H106.715ZM113.5 14.0293C112.766 14.0293 112.236 13.8945 111.912 13.625C111.588 13.3555 111.426 12.9141 111.426 12.3008V8.72656H110.43V7.5957H111.426V6.02539H112.908V7.5957H114.256V8.72656H112.908V11.9551C112.908 12.2715 112.975 12.5039 113.107 12.6523C113.244 12.7969 113.463 12.8691 113.764 12.8691C113.869 12.8691 113.955 12.8672 114.021 12.8633C114.092 12.8555 114.17 12.8477 114.256 12.8398V13.9648C114.154 13.9844 114.037 14 113.904 14.0117C113.775 14.0234 113.641 14.0293 113.5 14.0293ZM119.482 14.2109C118.869 14.2109 118.318 14.1094 117.83 13.9062C117.342 13.6992 116.924 13.4023 116.576 13.0156C116.232 12.6289 115.969 12.1641 115.785 11.6211C115.602 11.0742 115.51 10.459 115.51 9.77539V9.76367C115.51 8.86133 115.672 8.08008 115.996 7.41992C116.32 6.75586 116.777 6.24219 117.367 5.87891C117.961 5.51562 118.658 5.33398 119.459 5.33398C120.111 5.33398 120.693 5.45117 121.205 5.68555C121.721 5.91602 122.143 6.24023 122.471 6.6582C122.799 7.07227 123.008 7.55469 123.098 8.10547L123.109 8.16406H121.609L121.592 8.10547C121.455 7.64062 121.201 7.28125 120.83 7.02734C120.459 6.76953 120.002 6.64062 119.459 6.64062C118.967 6.64062 118.539 6.76758 118.176 7.02148C117.816 7.27539 117.539 7.63477 117.344 8.09961C117.148 8.56445 117.051 9.11523 117.051 9.75195V9.76367C117.051 10.248 117.107 10.6836 117.221 11.0703C117.334 11.457 117.496 11.7871 117.707 12.0605C117.922 12.334 118.18 12.543 118.48 12.6875C118.785 12.832 119.127 12.9043 119.506 12.9043C119.936 12.9043 120.312 12.8203 120.637 12.6523C120.965 12.4844 121.221 12.25 121.404 11.9492C121.592 11.6484 121.689 11.2988 121.697 10.9004V10.7246H119.67V9.57031H123.174V10.625C123.174 11.1719 123.088 11.666 122.916 12.1074C122.744 12.5488 122.496 12.9258 122.172 13.2383C121.852 13.5508 121.463 13.791 121.006 13.959C120.553 14.127 120.045 14.2109 119.482 14.2109ZM128.553 14.2109C127.939 14.2109 127.389 14.1094 126.9 13.9062C126.412 13.6992 125.994 13.4023 125.646 13.0156C125.303 12.6289 125.039 12.1641 124.855 11.6211C124.672 11.0742 124.58 10.459 124.58 9.77539V9.76367C124.58 8.86133 124.742 8.08008 125.066 7.41992C125.391 6.75586 125.848 6.24219 126.438 5.87891C127.031 5.51562 127.729 5.33398 128.529 5.33398C129.182 5.33398 129.764 5.45117 130.275 5.68555C130.791 5.91602 131.213 6.24023 131.541 6.6582C131.869 7.07227 132.078 7.55469 132.168 8.10547L132.18 8.16406H130.68L130.662 8.10547C130.525 7.64062 130.271 7.28125 129.9 7.02734C129.529 6.76953 129.072 6.64062 128.529 6.64062C128.037 6.64062 127.609 6.76758 127.246 7.02148C126.887 7.27539 126.609 7.63477 126.414 8.09961C126.219 8.56445 126.121 9.11523 126.121 9.75195V9.76367C126.121 10.248 126.178 10.6836 126.291 11.0703C126.404 11.457 126.566 11.7871 126.777 12.0605C126.992 12.334 127.25 12.543 127.551 12.6875C127.855 12.832 128.197 12.9043 128.576 12.9043C129.006 12.9043 129.383 12.8203 129.707 12.6523C130.035 12.4844 130.291 12.25 130.475 11.9492C130.662 11.6484 130.76 11.2988 130.768 10.9004V10.7246H128.74V9.57031H132.244V10.625C132.244 11.1719 132.158 11.666 131.986 12.1074C131.814 12.5488 131.566 12.9258 131.242 13.2383C130.922 13.5508 130.533 13.791 130.076 13.959C129.623 14.127 129.115 14.2109 128.553 14.2109Z" fill="black"/>
</svg>
