<svg width="10" height="10" viewBox="0 0 10 10" fill="none" xmlns="http://www.w3.org/2000/svg">
<g clip-path="url(#clip0_92_1572)">
<path d="M10 4.99808C10 7.74836 7.75432 9.99232 4.99808 9.99232C2.24568 9.99232 0 7.74836 0 4.99808C0 2.24395 2.24568 0 4.99808 0C7.75432 0 10 2.24395 10 4.99808ZM6.6526 3.02647L4.43378 6.55159L3.32822 5.1707C3.22457 5.03644 3.12861 4.99424 3.00959 4.99424C2.81766 4.99424 2.66795 5.15151 2.66795 5.34331C2.66795 5.43919 2.70633 5.5351 2.7716 5.61948L4.08061 7.19984C4.19195 7.34177 4.30327 7.40313 4.44914 7.40313C4.59501 7.40313 4.71402 7.3341 4.80231 7.19984L7.20922 3.42923C7.25912 3.34868 7.30903 3.24894 7.30903 3.15689C7.30903 2.96126 7.14013 2.83084 6.95586 2.83084C6.8407 2.83084 6.72938 2.89988 6.6526 3.02647Z" fill="#42DF29"/>
</g>
<defs>
<clipPath id="clip0_92_1572">
<rect width="10" height="10" fill="white"/>
</clipPath>
</defs>
</svg>
