<svg width="12" height="12" viewBox="0 0 12 12" fill="none" xmlns="http://www.w3.org/2000/svg">
<g clip-path="url(#clip0_92_1701)">
<path d="M12 5.99769C12 9.29804 9.30519 11.9908 5.9977 11.9908C2.69481 11.9908 0 9.29804 0 5.99769C0 2.69274 2.69481 0 5.9977 0C9.30519 0 12 2.69274 12 5.99769ZM7.71132 3.71L5.9977 5.41311L4.29328 3.7146C4.21038 3.63176 4.11824 3.59034 3.99847 3.59034C3.76354 3.59034 3.57466 3.76985 3.57466 4.00459C3.57466 4.11968 3.62074 4.22094 3.70365 4.30379L5.40346 6.00229L3.70365 7.7008C3.62074 7.78366 3.57466 7.88952 3.57466 7.99999C3.57466 8.23936 3.76354 8.42806 3.99847 8.42806C4.11824 8.42806 4.22419 8.38204 4.30709 8.2992L5.9977 6.60069L7.6929 8.2992C7.77581 8.38204 7.88178 8.42806 8.00153 8.42806C8.23646 8.42806 8.42534 8.23936 8.42534 7.99999C8.42534 7.88492 8.38849 7.77906 8.30096 7.6962L6.60116 6.00229L8.30558 4.29919C8.39769 4.20714 8.42994 4.11508 8.42994 3.99539C8.42994 3.76524 8.24109 3.58112 8.01076 3.58112C7.89559 3.58112 7.80345 3.61796 7.71132 3.71Z" fill="#E3E3E3"/>
</g>
<defs>
<clipPath id="clip0_92_1701">
<rect width="12" height="12" fill="white"/>
</clipPath>
</defs>
</svg>
