<svg width="20" height="20" viewBox="0 0 20 20" fill="none" xmlns="http://www.w3.org/2000/svg">
<path d="M4.22221 14.9535C4.15617 15.066 4.07646 15.1686 3.99603 15.2711C3.75848 15.5737 3.4345 15.7614 3.10079 15.9303C2.98674 15.9881 2.87255 16.0327 2.85466 16.1696C2.83474 16.322 2.96273 16.373 3.06808 16.4338C3.08163 16.4416 3.09725 16.4458 3.11184 16.4518C3.9648 16.802 4.84718 17.0514 5.75087 17.2309C6.73182 17.4257 7.72175 17.5395 8.72079 17.5738C9.33642 17.5949 9.95139 17.5809 10.5656 17.5285C11.2927 17.4665 11.9999 17.3263 12.6779 17.0456C13.4951 16.7073 14.2087 16.2243 14.8179 15.5821C15.6552 14.6994 16.215 13.6625 16.5489 12.4991C16.8215 11.5493 16.9158 10.5813 16.8393 9.59507C16.7905 8.9665 16.6809 8.34924 16.4785 7.75407C16.2323 7.0301 15.9176 6.336 15.5279 5.67419C15.0459 4.85555 14.4033 4.19547 13.6181 3.67402C12.3175 2.81034 10.8752 2.39397 9.31973 2.36939C8.35978 2.35424 7.42759 2.50909 6.53761 2.885C6.36359 2.95851 6.179 3.0073 6.00588 3.0826C5.15264 3.45366 4.44578 4.01264 3.88718 4.75693C3.36201 5.45666 3.03198 6.24392 2.85798 7.09767C2.70932 7.82702 2.70999 8.56194 2.78077 9.30067C2.81506 9.65833 2.94065 9.98838 3.04037 10.3271C3.06073 10.5509 3.17472 10.7464 3.25356 10.9481C3.38275 11.2786 3.53087 11.5996 3.63699 11.9416C3.73232 12.2488 3.8846 12.5403 4.03053 12.8292C4.19123 13.1475 4.32474 13.4718 4.34479 13.8309C4.36212 14.1409 4.38597 14.4522 4.28866 14.7571C4.26763 14.823 4.2082 14.8763 4.22221 14.9535ZM8.95393 18.6816C7.88092 18.6739 6.50732 18.5256 5.15006 18.2247C4.2586 18.027 3.38617 17.7699 2.54923 17.4024C1.92199 17.127 1.32504 16.7994 0.829768 16.3151C0.65294 16.1422 0.555391 15.9325 0.646612 15.683C0.747069 15.4083 0.94135 15.2348 1.23706 15.1804C1.48413 15.135 1.73404 15.1089 1.97126 15.0091C2.37917 14.8377 2.61019 14.5394 2.71889 14.114C2.80128 13.7915 2.73134 13.4913 2.63854 13.1963C2.47906 12.6894 2.30581 12.1865 2.13299 11.6837C1.8679 10.9124 1.60171 10.1394 1.49533 9.32506C1.44402 8.93226 1.44262 8.53536 1.49087 8.14365C1.55346 7.6354 1.61924 7.12645 1.76035 6.63097C1.89905 6.14399 2.0832 5.67781 2.31923 5.22849C2.56018 4.76984 2.81746 4.32374 3.14376 3.92058C3.83778 3.06308 4.70095 2.4353 5.71655 2.0053C6.83544 1.53159 7.99446 1.2699 9.21225 1.27273C9.92954 1.27439 10.6363 1.35219 11.3347 1.51603C12.5975 1.81227 13.747 2.34589 14.7641 3.15336C15.5008 3.73829 16.1167 4.43103 16.5519 5.26947C16.6769 5.51037 16.7984 5.75329 16.9266 5.99281C16.9656 6.06573 17.0151 6.10016 17.0945 6.12103C17.674 6.27341 18.2539 6.42462 18.8254 6.60563C18.9688 6.65103 19.1068 6.70824 19.2148 6.82071C19.4134 7.0276 19.4076 7.29654 19.1959 7.48995C19.1524 7.5296 19.1035 7.564 19.0541 7.59633C18.7541 7.79275 18.4517 7.9854 18.1538 8.18494C18.0662 8.24365 17.9894 8.31903 17.91 8.38948C17.8298 8.46072 17.8078 8.54686 17.8279 8.65556C17.9925 9.54327 18.0112 10.4377 17.9044 11.3315C17.7694 12.4617 17.4461 13.5371 16.9076 14.5448C16.4937 15.3195 15.9764 16.0152 15.3403 16.621C14.8346 17.1025 14.2605 17.4865 13.6504 17.8243C12.9766 18.1973 12.2481 18.3864 11.4984 18.5134C10.7613 18.6383 10.0174 18.6819 8.95393 18.6816Z" fill="#2782FB"/>
<path d="M3.04004 10.3272C3.10169 9.98091 3.2852 9.70207 3.51781 9.44739C3.87302 9.05845 4.27819 8.73094 4.76655 8.53454C5.38078 8.2875 6.01807 8.11858 6.69117 8.17757C7.82516 8.27696 8.75181 8.76189 9.44698 9.67367C9.71288 10.0224 9.91178 10.4065 10.036 10.8242C10.2404 11.5112 10.2555 12.204 10.0678 12.9009C9.86723 13.6462 9.47441 14.2729 8.89437 14.7724C8.39119 15.2057 7.80597 15.4876 7.14681 15.6111C6.47109 15.7377 5.81088 15.6823 5.16626 15.4554C4.85032 15.3442 4.55183 15.1914 4.28176 14.9889C4.26321 14.975 4.24147 14.9654 4.22155 14.9537C4.20787 14.8764 4.2673 14.8232 4.28832 14.7573C4.38564 14.4524 4.36178 14.141 4.34446 13.831C4.3244 13.472 4.19093 13.1476 4.0302 12.8294C3.8843 12.5404 3.73199 12.2489 3.63666 11.9417C3.53054 11.5997 3.38244 11.2787 3.25323 10.9482C3.17438 10.7465 3.0604 10.551 3.04004 10.3272Z" fill="#FB6131"/>
<path d="M11.3099 7.21459C11.2978 6.43047 11.9137 5.9622 12.5087 5.95181C13.1287 5.94102 13.6908 6.55588 13.6741 7.19005C13.6565 7.8566 13.0864 8.39617 12.4105 8.38569C11.7962 8.37617 11.2972 7.84525 11.3099 7.21459Z" fill="#2782FB"/>
</svg>
